<mxfile host="app.diagrams.net" agent="Mozilla/5.0 (Macintosh; Intel Mac OS X 10_15_7) AppleWebKit/605.1.15 (KHTML, like Gecko) Version/18.1 Safari/605.1.15" version="24.8.3">
  <diagram name="Page-1" id="Oc6mzuHaexsoy2SZjhDX">
    <mxGraphModel dx="1987" dy="1328" grid="1" gridSize="10" guides="1" tooltips="1" connect="1" arrows="1" fold="1" page="1" pageScale="1" pageWidth="827" pageHeight="1169" math="0" shadow="0">
      <root>
        <mxCell id="0" />
        <mxCell id="1" parent="0" />
        <mxCell id="stg8ZOWepQ2pk7FR4M00-12" value="" style="edgeStyle=orthogonalEdgeStyle;rounded=0;orthogonalLoop=1;jettySize=auto;html=1;" edge="1" parent="1" source="stg8ZOWepQ2pk7FR4M00-1" target="stg8ZOWepQ2pk7FR4M00-8">
          <mxGeometry relative="1" as="geometry" />
        </mxCell>
        <mxCell id="stg8ZOWepQ2pk7FR4M00-1" value="Web Scrapping and Data collection" style="rounded=0;whiteSpace=wrap;html=1;" vertex="1" parent="1">
          <mxGeometry x="-120" y="410" width="120" height="60" as="geometry" />
        </mxCell>
        <mxCell id="stg8ZOWepQ2pk7FR4M00-4" style="edgeStyle=orthogonalEdgeStyle;rounded=0;orthogonalLoop=1;jettySize=auto;html=1;entryX=0;entryY=0.5;entryDx=0;entryDy=0;" edge="1" parent="1" source="stg8ZOWepQ2pk7FR4M00-2" target="stg8ZOWepQ2pk7FR4M00-1">
          <mxGeometry relative="1" as="geometry" />
        </mxCell>
        <mxCell id="stg8ZOWepQ2pk7FR4M00-2" value="Weather Data" style="rounded=0;whiteSpace=wrap;html=1;" vertex="1" parent="1">
          <mxGeometry x="-280" y="320" width="120" height="60" as="geometry" />
        </mxCell>
        <mxCell id="stg8ZOWepQ2pk7FR4M00-5" style="edgeStyle=orthogonalEdgeStyle;rounded=0;orthogonalLoop=1;jettySize=auto;html=1;" edge="1" parent="1" source="stg8ZOWepQ2pk7FR4M00-3">
          <mxGeometry relative="1" as="geometry">
            <mxPoint x="-120" y="440" as="targetPoint" />
            <Array as="points">
              <mxPoint x="-140" y="530" />
              <mxPoint x="-140" y="440" />
            </Array>
          </mxGeometry>
        </mxCell>
        <mxCell id="stg8ZOWepQ2pk7FR4M00-3" value="Historic Train Delay Data" style="rounded=0;whiteSpace=wrap;html=1;" vertex="1" parent="1">
          <mxGeometry x="-280" y="500" width="120" height="60" as="geometry" />
        </mxCell>
        <mxCell id="stg8ZOWepQ2pk7FR4M00-7" value="" style="edgeStyle=orthogonalEdgeStyle;rounded=0;orthogonalLoop=1;jettySize=auto;html=1;" edge="1" parent="1" source="stg8ZOWepQ2pk7FR4M00-6" target="stg8ZOWepQ2pk7FR4M00-1">
          <mxGeometry relative="1" as="geometry" />
        </mxCell>
        <mxCell id="stg8ZOWepQ2pk7FR4M00-6" value="Train Schedule Data" style="rounded=0;whiteSpace=wrap;html=1;" vertex="1" parent="1">
          <mxGeometry x="-280" y="410" width="120" height="60" as="geometry" />
        </mxCell>
        <mxCell id="stg8ZOWepQ2pk7FR4M00-13" value="" style="edgeStyle=orthogonalEdgeStyle;rounded=0;orthogonalLoop=1;jettySize=auto;html=1;" edge="1" parent="1" source="stg8ZOWepQ2pk7FR4M00-8" target="stg8ZOWepQ2pk7FR4M00-10">
          <mxGeometry relative="1" as="geometry" />
        </mxCell>
        <mxCell id="stg8ZOWepQ2pk7FR4M00-14" style="edgeStyle=orthogonalEdgeStyle;rounded=0;orthogonalLoop=1;jettySize=auto;html=1;entryX=0;entryY=0.5;entryDx=0;entryDy=0;" edge="1" parent="1" source="stg8ZOWepQ2pk7FR4M00-8" target="stg8ZOWepQ2pk7FR4M00-9">
          <mxGeometry relative="1" as="geometry" />
        </mxCell>
        <mxCell id="stg8ZOWepQ2pk7FR4M00-15" style="edgeStyle=orthogonalEdgeStyle;rounded=0;orthogonalLoop=1;jettySize=auto;html=1;entryX=0;entryY=0.5;entryDx=0;entryDy=0;" edge="1" parent="1" source="stg8ZOWepQ2pk7FR4M00-8" target="stg8ZOWepQ2pk7FR4M00-11">
          <mxGeometry relative="1" as="geometry" />
        </mxCell>
        <mxCell id="stg8ZOWepQ2pk7FR4M00-8" value="Data&lt;div&gt;Preprocessing&amp;nbsp;&lt;/div&gt;" style="rounded=0;whiteSpace=wrap;html=1;" vertex="1" parent="1">
          <mxGeometry x="40" y="410" width="120" height="60" as="geometry" />
        </mxCell>
        <mxCell id="stg8ZOWepQ2pk7FR4M00-21" style="edgeStyle=orthogonalEdgeStyle;rounded=0;orthogonalLoop=1;jettySize=auto;html=1;entryX=1;entryY=0.5;entryDx=0;entryDy=0;" edge="1" parent="1" source="stg8ZOWepQ2pk7FR4M00-9" target="stg8ZOWepQ2pk7FR4M00-16">
          <mxGeometry relative="1" as="geometry">
            <Array as="points">
              <mxPoint x="520" y="360" />
              <mxPoint x="520" y="614" />
            </Array>
          </mxGeometry>
        </mxCell>
        <mxCell id="stg8ZOWepQ2pk7FR4M00-9" value="Data Cleaning" style="rounded=1;whiteSpace=wrap;html=1;" vertex="1" parent="1">
          <mxGeometry x="360" y="330" width="120" height="60" as="geometry" />
        </mxCell>
        <mxCell id="stg8ZOWepQ2pk7FR4M00-22" style="edgeStyle=orthogonalEdgeStyle;rounded=0;orthogonalLoop=1;jettySize=auto;html=1;entryX=1;entryY=0.5;entryDx=0;entryDy=0;" edge="1" parent="1" source="stg8ZOWepQ2pk7FR4M00-10" target="stg8ZOWepQ2pk7FR4M00-16">
          <mxGeometry relative="1" as="geometry">
            <Array as="points">
              <mxPoint x="520" y="440" />
              <mxPoint x="520" y="614" />
            </Array>
          </mxGeometry>
        </mxCell>
        <mxCell id="stg8ZOWepQ2pk7FR4M00-10" value="Feature&lt;div&gt;&amp;nbsp;Engineering&amp;nbsp;&lt;/div&gt;" style="rounded=1;whiteSpace=wrap;html=1;" vertex="1" parent="1">
          <mxGeometry x="360" y="410" width="120" height="60" as="geometry" />
        </mxCell>
        <mxCell id="stg8ZOWepQ2pk7FR4M00-23" style="edgeStyle=orthogonalEdgeStyle;rounded=0;orthogonalLoop=1;jettySize=auto;html=1;entryX=1;entryY=0.5;entryDx=0;entryDy=0;" edge="1" parent="1" source="stg8ZOWepQ2pk7FR4M00-11" target="stg8ZOWepQ2pk7FR4M00-16">
          <mxGeometry relative="1" as="geometry">
            <Array as="points">
              <mxPoint x="520" y="520" />
              <mxPoint x="520" y="614" />
            </Array>
          </mxGeometry>
        </mxCell>
        <mxCell id="stg8ZOWepQ2pk7FR4M00-11" value="Feature Scaling" style="rounded=1;whiteSpace=wrap;html=1;" vertex="1" parent="1">
          <mxGeometry x="360" y="490" width="120" height="60" as="geometry" />
        </mxCell>
        <mxCell id="stg8ZOWepQ2pk7FR4M00-26" style="edgeStyle=orthogonalEdgeStyle;rounded=0;orthogonalLoop=1;jettySize=auto;html=1;entryX=1;entryY=0.5;entryDx=0;entryDy=0;" edge="1" parent="1" source="stg8ZOWepQ2pk7FR4M00-16" target="stg8ZOWepQ2pk7FR4M00-20">
          <mxGeometry relative="1" as="geometry">
            <Array as="points">
              <mxPoint x="440" y="700" />
            </Array>
          </mxGeometry>
        </mxCell>
        <mxCell id="stg8ZOWepQ2pk7FR4M00-41" style="edgeStyle=orthogonalEdgeStyle;rounded=0;orthogonalLoop=1;jettySize=auto;html=1;entryX=1;entryY=0.5;entryDx=0;entryDy=0;" edge="1" parent="1" source="stg8ZOWepQ2pk7FR4M00-16" target="stg8ZOWepQ2pk7FR4M00-32">
          <mxGeometry relative="1" as="geometry">
            <Array as="points">
              <mxPoint x="440" y="840" />
            </Array>
          </mxGeometry>
        </mxCell>
        <mxCell id="stg8ZOWepQ2pk7FR4M00-43" style="edgeStyle=orthogonalEdgeStyle;rounded=0;orthogonalLoop=1;jettySize=auto;html=1;entryX=1;entryY=0.5;entryDx=0;entryDy=0;" edge="1" parent="1" source="stg8ZOWepQ2pk7FR4M00-16" target="stg8ZOWepQ2pk7FR4M00-42">
          <mxGeometry relative="1" as="geometry">
            <Array as="points">
              <mxPoint x="440" y="990" />
            </Array>
          </mxGeometry>
        </mxCell>
        <mxCell id="stg8ZOWepQ2pk7FR4M00-16" value="Modeling" style="rounded=0;whiteSpace=wrap;html=1;" vertex="1" parent="1">
          <mxGeometry x="354" y="584" width="120" height="56" as="geometry" />
        </mxCell>
        <mxCell id="stg8ZOWepQ2pk7FR4M00-27" style="edgeStyle=orthogonalEdgeStyle;rounded=0;orthogonalLoop=1;jettySize=auto;html=1;entryX=1;entryY=0.5;entryDx=0;entryDy=0;" edge="1" parent="1" source="stg8ZOWepQ2pk7FR4M00-20" target="stg8ZOWepQ2pk7FR4M00-24">
          <mxGeometry relative="1" as="geometry" />
        </mxCell>
        <mxCell id="stg8ZOWepQ2pk7FR4M00-28" style="edgeStyle=orthogonalEdgeStyle;rounded=0;orthogonalLoop=1;jettySize=auto;html=1;entryX=1;entryY=0.5;entryDx=0;entryDy=0;" edge="1" parent="1" source="stg8ZOWepQ2pk7FR4M00-20" target="stg8ZOWepQ2pk7FR4M00-25">
          <mxGeometry relative="1" as="geometry" />
        </mxCell>
        <mxCell id="stg8ZOWepQ2pk7FR4M00-20" value="Statistical Models" style="rounded=1;whiteSpace=wrap;html=1;" vertex="1" parent="1">
          <mxGeometry x="300" y="670" width="120" height="60" as="geometry" />
        </mxCell>
        <mxCell id="stg8ZOWepQ2pk7FR4M00-24" value="ARMA" style="rounded=1;whiteSpace=wrap;html=1;" vertex="1" parent="1">
          <mxGeometry x="140" y="630" width="120" height="60" as="geometry" />
        </mxCell>
        <mxCell id="stg8ZOWepQ2pk7FR4M00-25" value="ARIMA" style="rounded=1;whiteSpace=wrap;html=1;" vertex="1" parent="1">
          <mxGeometry x="140" y="710" width="120" height="60" as="geometry" />
        </mxCell>
        <mxCell id="stg8ZOWepQ2pk7FR4M00-30" style="edgeStyle=orthogonalEdgeStyle;rounded=0;orthogonalLoop=1;jettySize=auto;html=1;entryX=1;entryY=0.5;entryDx=0;entryDy=0;" edge="1" parent="1" source="stg8ZOWepQ2pk7FR4M00-32" target="stg8ZOWepQ2pk7FR4M00-33">
          <mxGeometry relative="1" as="geometry">
            <Array as="points">
              <mxPoint x="130" y="840" />
              <mxPoint x="130" y="710" />
            </Array>
          </mxGeometry>
        </mxCell>
        <mxCell id="stg8ZOWepQ2pk7FR4M00-31" style="edgeStyle=orthogonalEdgeStyle;rounded=0;orthogonalLoop=1;jettySize=auto;html=1;entryX=1;entryY=0.5;entryDx=0;entryDy=0;" edge="1" parent="1" source="stg8ZOWepQ2pk7FR4M00-32" target="stg8ZOWepQ2pk7FR4M00-34">
          <mxGeometry relative="1" as="geometry">
            <Array as="points">
              <mxPoint x="130" y="840" />
              <mxPoint x="130" y="790" />
            </Array>
          </mxGeometry>
        </mxCell>
        <mxCell id="stg8ZOWepQ2pk7FR4M00-38" style="edgeStyle=orthogonalEdgeStyle;rounded=0;orthogonalLoop=1;jettySize=auto;html=1;entryX=1;entryY=0.5;entryDx=0;entryDy=0;" edge="1" parent="1" source="stg8ZOWepQ2pk7FR4M00-32" target="stg8ZOWepQ2pk7FR4M00-36">
          <mxGeometry relative="1" as="geometry">
            <Array as="points">
              <mxPoint x="130" y="840" />
              <mxPoint x="130" y="630" />
            </Array>
          </mxGeometry>
        </mxCell>
        <mxCell id="stg8ZOWepQ2pk7FR4M00-39" style="edgeStyle=orthogonalEdgeStyle;rounded=0;orthogonalLoop=1;jettySize=auto;html=1;entryX=1;entryY=0.5;entryDx=0;entryDy=0;" edge="1" parent="1" source="stg8ZOWepQ2pk7FR4M00-32" target="stg8ZOWepQ2pk7FR4M00-35">
          <mxGeometry relative="1" as="geometry">
            <Array as="points">
              <mxPoint x="130" y="840" />
              <mxPoint x="130" y="870" />
            </Array>
          </mxGeometry>
        </mxCell>
        <mxCell id="stg8ZOWepQ2pk7FR4M00-40" style="edgeStyle=orthogonalEdgeStyle;rounded=0;orthogonalLoop=1;jettySize=auto;html=1;entryX=1;entryY=0.5;entryDx=0;entryDy=0;" edge="1" parent="1" source="stg8ZOWepQ2pk7FR4M00-32" target="stg8ZOWepQ2pk7FR4M00-37">
          <mxGeometry relative="1" as="geometry">
            <Array as="points">
              <mxPoint x="130" y="840" />
              <mxPoint x="130" y="950" />
            </Array>
          </mxGeometry>
        </mxCell>
        <mxCell id="stg8ZOWepQ2pk7FR4M00-32" value="Machine Learning Models" style="rounded=1;whiteSpace=wrap;html=1;" vertex="1" parent="1">
          <mxGeometry x="300" y="810" width="120" height="60" as="geometry" />
        </mxCell>
        <mxCell id="stg8ZOWepQ2pk7FR4M00-33" value="Decision Trees" style="rounded=1;whiteSpace=wrap;html=1;" vertex="1" parent="1">
          <mxGeometry x="-20" y="680" width="120" height="60" as="geometry" />
        </mxCell>
        <mxCell id="stg8ZOWepQ2pk7FR4M00-34" value="Random Forest" style="rounded=1;whiteSpace=wrap;html=1;" vertex="1" parent="1">
          <mxGeometry x="-20" y="760" width="120" height="60" as="geometry" />
        </mxCell>
        <mxCell id="stg8ZOWepQ2pk7FR4M00-35" value="AdaBoost" style="rounded=1;whiteSpace=wrap;html=1;" vertex="1" parent="1">
          <mxGeometry x="-20" y="840" width="120" height="60" as="geometry" />
        </mxCell>
        <mxCell id="stg8ZOWepQ2pk7FR4M00-36" value="XGBoost" style="rounded=1;whiteSpace=wrap;html=1;" vertex="1" parent="1">
          <mxGeometry x="-20" y="600" width="120" height="60" as="geometry" />
        </mxCell>
        <mxCell id="stg8ZOWepQ2pk7FR4M00-37" value="CatBoost" style="rounded=1;whiteSpace=wrap;html=1;" vertex="1" parent="1">
          <mxGeometry x="-20" y="920" width="120" height="60" as="geometry" />
        </mxCell>
        <mxCell id="stg8ZOWepQ2pk7FR4M00-49" value="" style="edgeStyle=orthogonalEdgeStyle;rounded=0;orthogonalLoop=1;jettySize=auto;html=1;" edge="1" parent="1" source="stg8ZOWepQ2pk7FR4M00-42" target="stg8ZOWepQ2pk7FR4M00-45">
          <mxGeometry relative="1" as="geometry" />
        </mxCell>
        <mxCell id="stg8ZOWepQ2pk7FR4M00-50" style="edgeStyle=orthogonalEdgeStyle;rounded=0;orthogonalLoop=1;jettySize=auto;html=1;entryX=1;entryY=0.5;entryDx=0;entryDy=0;" edge="1" parent="1" source="stg8ZOWepQ2pk7FR4M00-42" target="stg8ZOWepQ2pk7FR4M00-44">
          <mxGeometry relative="1" as="geometry" />
        </mxCell>
        <mxCell id="stg8ZOWepQ2pk7FR4M00-51" style="edgeStyle=orthogonalEdgeStyle;rounded=0;orthogonalLoop=1;jettySize=auto;html=1;entryX=1;entryY=0.5;entryDx=0;entryDy=0;" edge="1" parent="1" source="stg8ZOWepQ2pk7FR4M00-42" target="stg8ZOWepQ2pk7FR4M00-46">
          <mxGeometry relative="1" as="geometry" />
        </mxCell>
        <mxCell id="stg8ZOWepQ2pk7FR4M00-42" value="Deep Learning Models" style="rounded=1;whiteSpace=wrap;html=1;" vertex="1" parent="1">
          <mxGeometry x="300" y="960" width="120" height="60" as="geometry" />
        </mxCell>
        <mxCell id="stg8ZOWepQ2pk7FR4M00-44" value="LSTM and Bi LSTM" style="rounded=1;whiteSpace=wrap;html=1;" vertex="1" parent="1">
          <mxGeometry x="140" y="890" width="120" height="60" as="geometry" />
        </mxCell>
        <mxCell id="stg8ZOWepQ2pk7FR4M00-45" value="RNN and Bi RNN" style="rounded=1;whiteSpace=wrap;html=1;" vertex="1" parent="1">
          <mxGeometry x="140" y="960" width="120" height="60" as="geometry" />
        </mxCell>
        <mxCell id="stg8ZOWepQ2pk7FR4M00-46" value="Stacking&amp;nbsp;&lt;div&gt;Regression&amp;nbsp;&lt;/div&gt;" style="rounded=1;whiteSpace=wrap;html=1;" vertex="1" parent="1">
          <mxGeometry x="140" y="1030" width="120" height="60" as="geometry" />
        </mxCell>
        <mxCell id="stg8ZOWepQ2pk7FR4M00-59" style="edgeStyle=orthogonalEdgeStyle;rounded=0;orthogonalLoop=1;jettySize=auto;html=1;entryX=1;entryY=0.5;entryDx=0;entryDy=0;" edge="1" parent="1" source="stg8ZOWepQ2pk7FR4M00-52" target="stg8ZOWepQ2pk7FR4M00-54">
          <mxGeometry relative="1" as="geometry" />
        </mxCell>
        <mxCell id="stg8ZOWepQ2pk7FR4M00-60" style="edgeStyle=orthogonalEdgeStyle;rounded=0;orthogonalLoop=1;jettySize=auto;html=1;entryX=1;entryY=0.5;entryDx=0;entryDy=0;" edge="1" parent="1" source="stg8ZOWepQ2pk7FR4M00-52" target="stg8ZOWepQ2pk7FR4M00-55">
          <mxGeometry relative="1" as="geometry" />
        </mxCell>
        <mxCell id="stg8ZOWepQ2pk7FR4M00-52" value="Evaluation And Optimisation" style="rounded=0;whiteSpace=wrap;html=1;" vertex="1" parent="1">
          <mxGeometry x="-220" y="760" width="120" height="60" as="geometry" />
        </mxCell>
        <mxCell id="stg8ZOWepQ2pk7FR4M00-53" value="" style="endArrow=classic;html=1;rounded=0;entryX=1;entryY=0.5;entryDx=0;entryDy=0;" edge="1" parent="1" target="stg8ZOWepQ2pk7FR4M00-52">
          <mxGeometry width="50" height="50" relative="1" as="geometry">
            <mxPoint x="-40" y="790" as="sourcePoint" />
            <mxPoint x="150" y="720" as="targetPoint" />
          </mxGeometry>
        </mxCell>
        <mxCell id="stg8ZOWepQ2pk7FR4M00-62" style="edgeStyle=orthogonalEdgeStyle;rounded=0;orthogonalLoop=1;jettySize=auto;html=1;entryX=0;entryY=0.5;entryDx=0;entryDy=0;" edge="1" parent="1" source="stg8ZOWepQ2pk7FR4M00-54" target="stg8ZOWepQ2pk7FR4M00-61">
          <mxGeometry relative="1" as="geometry">
            <Array as="points">
              <mxPoint x="-460" y="760" />
              <mxPoint x="-460" y="940" />
            </Array>
          </mxGeometry>
        </mxCell>
        <mxCell id="stg8ZOWepQ2pk7FR4M00-54" value="Metrics&amp;nbsp;" style="rounded=1;whiteSpace=wrap;html=1;" vertex="1" parent="1">
          <mxGeometry x="-390" y="730" width="120" height="60" as="geometry" />
        </mxCell>
        <mxCell id="stg8ZOWepQ2pk7FR4M00-63" style="edgeStyle=orthogonalEdgeStyle;rounded=0;orthogonalLoop=1;jettySize=auto;html=1;entryX=0;entryY=0.5;entryDx=0;entryDy=0;" edge="1" parent="1" source="stg8ZOWepQ2pk7FR4M00-55" target="stg8ZOWepQ2pk7FR4M00-61">
          <mxGeometry relative="1" as="geometry">
            <Array as="points">
              <mxPoint x="-460" y="840" />
              <mxPoint x="-460" y="940" />
            </Array>
          </mxGeometry>
        </mxCell>
        <mxCell id="stg8ZOWepQ2pk7FR4M00-55" value="Cross Validation and tuning" style="rounded=1;whiteSpace=wrap;html=1;" vertex="1" parent="1">
          <mxGeometry x="-390" y="810" width="120" height="60" as="geometry" />
        </mxCell>
        <mxCell id="stg8ZOWepQ2pk7FR4M00-56" value="" style="endArrow=none;html=1;rounded=0;" edge="1" parent="1">
          <mxGeometry width="50" height="50" relative="1" as="geometry">
            <mxPoint x="-40" y="1000" as="sourcePoint" />
            <mxPoint x="-40" y="590" as="targetPoint" />
            <Array as="points">
              <mxPoint x="-40" y="790" />
            </Array>
          </mxGeometry>
        </mxCell>
        <mxCell id="stg8ZOWepQ2pk7FR4M00-61" value="Prediction" style="rounded=0;whiteSpace=wrap;html=1;" vertex="1" parent="1">
          <mxGeometry x="-240" y="910" width="120" height="60" as="geometry" />
        </mxCell>
      </root>
    </mxGraphModel>
  </diagram>
</mxfile>
